<svg width="48" height="48" viewBox="0 0 48 48" fill="none" xmlns="http://www.w3.org/2000/svg">
<path d="M31.2 5.40004C26.9224 3.7382 22.2034 3.59797 17.8346 5.00288C13.4659 6.40778 9.71315 9.27235 7.20601 13.116C4.69886 16.9597 3.5898 21.5487 4.06489 26.1131C4.53999 30.6776 6.57032 34.9398 9.81529 38.1847C13.0603 41.4297 17.3225 43.46 21.8869 43.9351C26.4513 44.4102 31.0403 43.3012 34.884 40.794C38.7277 38.2869 41.5923 34.5342 42.9972 30.1654C44.4021 25.7967 44.2618 21.0777 42.6 16.8" stroke="#FF6B35" stroke-width="4" stroke-linecap="round" stroke-linejoin="round"/>
<path d="M24 28C26.2091 28 28 26.2091 28 24C28 21.7909 26.2091 20 24 20C21.7909 20 20 21.7909 20 24C20 26.2091 21.7909 28 24 28Z" stroke="#FF6B35" stroke-width="4" stroke-linecap="round" stroke-linejoin="round"/>
<path d="M26.8 21.2L38 10" stroke="#FF6B35" stroke-width="4" stroke-linecap="round" stroke-linejoin="round"/>
</svg>
