<svg width="48" height="48" viewBox="0 0 48 48" fill="none" xmlns="http://www.w3.org/2000/svg">
<path d="M28 4V16C27.9997 16.671 28.1682 17.3312 28.49 17.92L39.51 38.08C39.8433 38.6892 40.0123 39.3747 40.0003 40.0691C39.9883 40.7634 39.7958 41.4427 39.4416 42.04C39.0874 42.6373 38.5839 43.1322 37.9804 43.4759C37.377 43.8195 36.6944 44.0002 36 44H12C11.3055 44.0002 10.623 43.8195 10.0196 43.4759C9.41613 43.1322 8.91254 42.6373 8.55838 42.04C8.20421 41.4427 8.01166 40.7634 7.99967 40.0691C7.98768 39.3747 8.15666 38.6892 8.49 38.08L19.51 17.92C19.8318 17.3312 20.0003 16.671 20 16V4" stroke="#FF6B35" stroke-width="4" stroke-linecap="round" stroke-linejoin="round"/>
<path d="M12.906 30H35.094" stroke="#FF6B35" stroke-width="4" stroke-linecap="round" stroke-linejoin="round"/>
<path d="M17 4H31" stroke="#FF6B35" stroke-width="4" stroke-linecap="round" stroke-linejoin="round"/>
</svg>
