<svg width="100" height="101" viewBox="0 0 100 101" fill="none" xmlns="http://www.w3.org/2000/svg">
<path d="M45.8333 71.5417L54.1666 79.9584C54.9874 80.7873 55.9618 81.4449 57.0342 81.8936C58.1065 82.3422 59.2559 82.5731 60.4166 82.5731C61.5774 82.5731 62.7267 82.3422 63.7991 81.8936C64.8715 81.4449 65.8459 80.7873 66.6666 79.9584C67.4874 79.1294 68.1385 78.1453 68.5827 77.0622C69.0269 75.9791 69.2555 74.8182 69.2555 73.6459C69.2555 72.4735 69.0269 71.3127 68.5827 70.2296C68.1385 69.1465 67.4874 68.1623 66.6666 67.3334" stroke="#FF6B35" stroke-width="6" stroke-linecap="round" stroke-linejoin="round"/>
<path d="M58.3334 58.9167L68.75 69.4375C70.4076 71.1117 72.6558 72.0523 75 72.0523C77.3442 72.0523 79.5924 71.1117 81.25 69.4375C82.9076 67.7634 83.8389 65.4927 83.8389 63.125C83.8389 60.7574 82.9076 58.4867 81.25 56.8125L65.0834 40.4842C62.7396 38.12 59.5625 36.792 56.25 36.792C52.9375 36.792 49.7605 38.12 47.4167 40.4842L43.75 44.1875C42.0924 45.8617 39.8442 46.8023 37.5 46.8023C35.1558 46.8023 32.9076 45.8617 31.25 44.1875C29.5924 42.5134 28.6612 40.2427 28.6612 37.875C28.6612 35.5074 29.5924 33.2367 31.25 31.5625L42.9584 19.7371C46.7594 15.9082 51.7163 13.469 57.0444 12.8059C62.3725 12.1427 67.7674 13.2935 72.375 16.0759L74.3334 17.2542C76.1075 18.3357 78.2169 18.7108 80.25 18.3063L87.5 16.8334" stroke="#FF6B35" stroke-width="6" stroke-linecap="round" stroke-linejoin="round"/>
<path d="M87.5 12.625L91.6666 58.9167H83.3333" stroke="#FF6B35" stroke-width="6" stroke-linecap="round" stroke-linejoin="round"/>
<path d="M12.5 12.625L8.33331 58.9167L35.4166 86.2708C37.0742 87.945 39.3224 88.8856 41.6666 88.8856C44.0108 88.8856 46.259 87.945 47.9166 86.2708C49.5742 84.5967 50.5055 82.326 50.5055 79.9583C50.5055 77.5907 49.5742 75.32 47.9166 73.6458" stroke="#FF6B35" stroke-width="6" stroke-linecap="round" stroke-linejoin="round"/>
<path d="M12.5 16.8334H45.8333" stroke="#FF6B35" stroke-width="6" stroke-linecap="round" stroke-linejoin="round"/>
</svg>
