<svg width="100" height="100" viewBox="0 0 100 100" fill="none" xmlns="http://www.w3.org/2000/svg">
<path d="M66.6666 87.5V79.1667C66.6666 74.7464 64.9107 70.5072 61.7851 67.3816C58.6595 64.256 54.4203 62.5 50 62.5H25C20.5797 62.5 16.3405 64.256 13.2149 67.3816C10.0893 70.5072 8.33331 74.7464 8.33331 79.1667V87.5" stroke="#FF6B35" stroke-width="6" stroke-linecap="round" stroke-linejoin="round"/>
<path d="M37.5 45.8333C46.7048 45.8333 54.1667 38.3714 54.1667 29.1667C54.1667 19.9619 46.7048 12.5 37.5 12.5C28.2953 12.5 20.8334 19.9619 20.8334 29.1667C20.8334 38.3714 28.2953 45.8333 37.5 45.8333Z" stroke="#FF6B35" stroke-width="6" stroke-linecap="round" stroke-linejoin="round"/>
<path d="M66.6666 45.8333L75 54.1667L91.6666 37.5" stroke="#FF6B35" stroke-width="6" stroke-linecap="round" stroke-linejoin="round"/>
</svg>
