<svg width="48" height="48" viewBox="0 0 48 48" fill="none" xmlns="http://www.w3.org/2000/svg">
<path d="M24 14C26.7614 14 29 11.7614 29 9C29 6.23858 26.7614 4 24 4C21.2386 4 19 6.23858 19 9C19 11.7614 21.2386 14 24 14Z" stroke="#FF6B35" stroke-width="4" stroke-linecap="round" stroke-linejoin="round"/>
<path d="M20.4 12.6L12.6 20.4" stroke="#FF6B35" stroke-width="4" stroke-linecap="round" stroke-linejoin="round"/>
<path d="M9 29C11.7614 29 14 26.7614 14 24C14 21.2386 11.7614 19 9 19C6.23858 19 4 21.2386 4 24C4 26.7614 6.23858 29 9 29Z" stroke="#FF6B35" stroke-width="4" stroke-linecap="round" stroke-linejoin="round"/>
<path d="M14 24H34" stroke="#FF6B35" stroke-width="4" stroke-linecap="round" stroke-linejoin="round"/>
<path d="M39 29C41.7614 29 44 26.7614 44 24C44 21.2386 41.7614 19 39 19C36.2386 19 34 21.2386 34 24C34 26.7614 36.2386 29 39 29Z" stroke="#FF6B35" stroke-width="4" stroke-linecap="round" stroke-linejoin="round"/>
<path d="M27.6 35.4L35.4 27.6" stroke="#FF6B35" stroke-width="4" stroke-linecap="round" stroke-linejoin="round"/>
<path d="M24 44C26.7614 44 29 41.7614 29 39C29 36.2386 26.7614 34 24 34C21.2386 34 19 36.2386 19 39C19 41.7614 21.2386 44 24 44Z" stroke="#FF6B35" stroke-width="4" stroke-linecap="round" stroke-linejoin="round"/>
</svg>
